<svg width="24" height="24" fill="none" xmlns="http://www.w3.org/2000/svg">
  <path fill-rule="evenodd" clip-rule="evenodd" d="M12 18s7-3.134 7-9A7 7 0 105 9c0 5.866 7 9 7 9zm0-6a3 3 0 100-6 3 3 0 000 6z" fill="currentColor"/>
  <path d="M17.687 16.933a.75.75 0 10-.982 1.134c.419.362.545.689.545.933 0 .244-.126.57-.545.933-.42.364-1.07.701-1.913.945-.838.241-1.802.372-2.792.372-.99 0-1.954-.13-2.792-.372-.843-.244-1.493-.58-1.913-.945-.419-.362-.545-.689-.545-.933 0-.244.126-.57.545-.933a.75.75 0 10-.982-1.134c-.635.55-1.063 1.258-1.063 2.067 0 .81.428 1.517 1.063 2.067.633.548 1.498.968 2.479 1.252.987.285 2.092.431 3.208.431s2.221-.146 3.208-.431c.98-.284 1.846-.704 2.48-1.252.634-.55 1.062-1.258 1.062-2.067 0-.81-.428-1.517-1.063-2.067z" fill="currentColor"/>
</svg>
