<svg width="24" height="24" fill="none" xmlns="http://www.w3.org/2000/svg">
  <path d="M7.758 6.148c-.914-.376-1.675-.69-2.266-.84-.573-.148-1.311-.23-1.854.32-.544.552-.45 1.289-.295 1.86.16.589.484 1.345.873 2.253l.647 1.51H10a.75.75 0 010 1.5H4.863l-.647 1.508c-.39.908-.714 1.665-.873 2.254-.155.57-.249 1.307.295 1.858.543.552 1.281.469 1.854.322.591-.151 1.352-.465 2.266-.84L19.2 13.14a5.03 5.03 0 00.594-.274c.15-.088.55-.348.55-.867 0-.52-.4-.779-.55-.867a5.045 5.045 0 00-.594-.273L7.758 6.148z" fill="currentColor"/>
</svg>
