<svg width="24" height="24" fill="none" xmlns="http://www.w3.org/2000/svg">
  <path fill-rule="evenodd" clip-rule="evenodd" d="M12.25 4.354c-.566 0-1.095.127-1.467.342L4.763 8.18c-.374.217-.41.407-.41.46 0 .052.036.242.41.459l6.02 3.485c.372.215.901.342 1.467.342.566 0 1.095-.127 1.467-.342l6.02-3.485c.374-.217.41-.407.41-.46 0-.052-.036-.242-.41-.46l-6.02-3.484c-.372-.215-.901-.342-1.467-.342zm0-1.354c.741 0 1.519.162 2.145.524l6.02 3.485c.622.36 1.085.927 1.085 1.631 0 .705-.463 1.271-1.086 1.631l-.3.174.3.174c.623.36 1.086.927 1.086 1.631s-.463 1.27-1.086 1.631l-.3.174.3.174c.623.36 1.086.926 1.086 1.63 0 .705-.463 1.272-1.086 1.632l-6.02 3.485c-.625.362-1.403.524-2.144.524-.741 0-1.519-.162-2.145-.524l-6.02-3.485C3.464 17.131 3 16.564 3 15.86c0-.705.463-1.271 1.086-1.631l.3-.174-.3-.174C3.463 13.521 3 12.954 3 12.25s.463-1.27 1.086-1.631l.3-.174-.3-.174C3.463 9.912 3 9.345 3 8.642c0-.705.463-1.272 1.086-1.632l6.02-3.485C10.73 3.162 11.508 3 12.25 3zM5.737 14.837l-.973.563c-.375.217-.41.407-.41.46 0 .052.035.242.41.46l6.02 3.484c.37.215.9.342 1.466.342s1.095-.127 1.467-.342l6.02-3.484c.374-.218.41-.408.41-.46 0-.053-.036-.243-.41-.46l-.974-.563-4.368 2.53c-.626.361-1.404.523-2.145.523-.741 0-1.519-.162-2.145-.524l-4.368-2.53zm8.658-1.08l4.369-2.53.972.563c.375.217.41.408.41.46 0 .052-.035.243-.41.46l-6.02 3.485c-.37.215-.9.342-1.466.342s-1.095-.127-1.467-.342l-6.02-3.485c-.374-.217-.41-.408-.41-.46 0-.052.036-.243.41-.46l.974-.563 4.368 2.53c.626.362 1.404.524 2.145.524.741 0 1.519-.162 2.145-.525z" fill="currentColor"/>
</svg>
