<svg width="24" height="24" xmlns="http://www.w3.org/2000/svg">
  <path d="M5.4 20.986a1.37 1.37 0 01-.5-.086l8.055-8.057 2.666 2.669-9.255 5.2a2 2 0 01-.965.274zm-1.163-.665a1.9 1.9 0 01-.236-.97V4.646a2.13 2.13 0 01.1-.658l8.233 8.235-8.1 8.1.003-.002zm12.179-5.258l-2.841-2.839 3.133-3.132 2.783 1.563c.534.24.891.755.928 1.339a1.574 1.574 0 01-.93 1.34l-3.073 1.729zM12.955 11.6l-8.34-8.339c.229-.17.506-.26.79-.261.337.012.665.107.956.277l9.55 5.368-2.955 2.955h-.001z" fill="currentColor" fill-rule="nonzero"/>
</svg>
