<svg width="24" height="24" xmlns="http://www.w3.org/2000/svg">
  <g fill="#000" fill-rule="nonzero">
    <path d="M19.424 2a.714.714 0 00-.714.714v2.609A9.265 9.265 0 003 11.997a.714.714 0 001.428 0 7.855 7.855 0 0113.65-5.302L14.913 7.75a.715.715 0 00.451 1.357l4.285-1.429a.714.714 0 00.488-.68V2.715A.714.714 0 0019.424 2zM20.852 11.283a.714.714 0 00-.714.714A7.855 7.855 0 016.49 17.3l3.163-1.054a.715.715 0 00-.45-1.357l-4.285 1.428a.714.714 0 00-.489.68v4.284a.714.714 0 101.428 0v-2.608a9.265 9.265 0 0015.71-6.675.714.714 0 00-.714-.714z"/>
  </g>
</svg>
